<svg xmlns="http://www.w3.org/2000/svg" viewBox="0 0 24 24" fill="#00ADD8"><path d="M1.811 10.231c-.047 0-.058-.023-.035-.059l.246-.315c.023-.035.081-.058.128-.058h4.172c.046 0 .058.035.035.07l-.199.303c-.023.036-.082.07-.117.07zM.047 11.306c-.047 0-.059-.023-.035-.058l.245-.316c.023-.035.082-.058.129-.058h5.328c.047 0 .07.035.058.07l-.093.28c-.012.047-.058.07-.105.07zm2.828 1.075c-.047 0-.059-.035-.035-.07l.163-.292c.023-.035.07-.07.117-.07h2.337c.047 0 .07.035.07.082l-.023.28c0 .047-.047.082-.082.082zm12.129-2.36c-.736.187-1.239.327-1.963.514-.176.046-.187.058-.34-.117-.174-.199-.303-.327-.548-.444-.737-.362-1.45-.257-2.115.175-.795.514-1.204 1.274-1.192 2.22.011.934.654 1.706 1.577 1.835.795.105 1.46-.175 1.987-.77.105-.13.198-.27.315-.434H10.47c-.245 0-.304-.152-.222-.35.152-.362.432-.97.596-1.274a.315.315 0 01.292-.187h4.253c-.023.316-.023.631-.07.947a4.983 4.983 0 01-.958 2.29c-.841 1.11-1.94 1.8-3.33 1.986-1.145.152-2.209-.058-3.143-.77-.865-.655-1.356-1.52-1.484-2.595-.152-1.274.222-2.419.993-3.424.83-1.086 1.905-1.764 3.202-2.058 1.087-.245 2.127-.152 3.072.466.537.352.932.818 1.227 1.392.058.105.023.164-.117.198z"/><path d="M18.91 18.442c-1.042-.035-2.001-.339-2.842-.95-.725-.526-1.227-1.227-1.437-2.092-.304-1.227-.07-2.36.618-3.388.758-1.134 1.822-1.846 3.131-2.092 1.11-.21 2.15-.082 3.096.571.76.527 1.262 1.239 1.484 2.15.304 1.355.012 2.56-.782 3.634-.7.947-1.622 1.577-2.754 1.893-.34.082-.69.14-1.052.164-.14.01-.28.01-.42.012h-.042zm3.387-4.767c-.012-.163-.024-.257-.059-.363-.269-.96-1.065-1.496-2.068-1.403-.97.082-1.67.584-2.068 1.473-.316.71-.28 1.438.094 2.115.316.573.853.876 1.507.933.84.07 1.53-.257 2.045-.876.409-.492.61-1.065.55-1.879z"/></svg>