<svg xmlns="http://www.w3.org/2000/svg" viewBox="0 0 24 24" fill="#326CE5"><path d="M10.204 14.35l.007.01-.999 2.413a5.171 5.171 0 01-2.075-2.597l2.578-.437.004.005a.44.44 0 01.485.606zm-.833-2.129a.44.44 0 00.173-.756l.002-.011L7.585 9.7a5.143 5.143 0 00-.73 3.255l2.514-.725.002-.009zm1.145-1.98a.44.44 0 00.699-.337l-.01-.01.15-2.62a5.144 5.144 0 00-3.01 1.442l2.168 1.527.003-.002zm2.67 1.9a.44.44 0 00.18.758l.003.01 2.514.725a5.143 5.143 0 00-.73-3.255l-1.96 1.753-.008.009zm-.886-1.963a.44.44 0 00.699.337l.003.002 2.168-1.527a5.144 5.144 0 00-3.01-1.442l.15 2.62-.01.01zm.436 4.572l-.005-.01-.999-2.413a.44.44 0 01.484-.606l.004-.004 2.578.437a5.171 5.171 0 01-2.075 2.597l.013-.001zM12 0C5.373 0 0 5.373 0 12s5.373 12 12 12 12-5.373 12-12S18.627 0 12 0zm4.53 17.752l-.007.008-.009.003a7.075 7.075 0 01-3.723 1.236h-.003A7.075 7.075 0 019.065 17.763l-.009-.003-.007-.008a6.956 6.956 0 01-1.88-3.46l-.002-.014-.001-.007a7.093 7.093 0 01.347-3.767l.005-.012.004-.01a6.975 6.975 0 012.638-3.12l.011-.008.01-.005a7.04 7.04 0 013.612-1.346h.039a7.04 7.04 0 013.612 1.346l.01.005.011.008a6.975 6.975 0 012.638 3.12l.004.01.005.012a7.093 7.093 0 01.347 3.767l-.001.007-.002.014a6.956 6.956 0 01-1.88 3.46z"/></svg>