<svg xmlns="http://www.w3.org/2000/svg" viewBox="0 0 24 24" fill="#6DB33F"><path d="M21.8537 1.4163a11.7644 11.7644 0 00-1.584 2.8962A11.7922 11.7922 0 001.1456 12.28c.0043 2.8589 1.0413 5.6285 2.924 7.8043l.0529.0614a1.4679 1.4679 0 00.928.4792 1.5044 1.5044 0 001.396-.8306c.163-.3488.3736-.9404-.2994-1.5218A9.3927 9.3927 0 013.5 12.28c.0093-5.1533 4.1826-9.3266 9.3359-9.3359a9.337 9.337 0 019.336 9.3364 9.2781 9.2781 0 01-4.2212 7.8008c-.1783.1125-.3621.2288-.53.3413a9.5577 9.5577 0 01-5.5112 1.5513 3.15 3.15 0 01-1.6102-.3834 1.3744 1.3744 0 01-.6015-.8272c-.0864-.3954.0302-.8614.6015-1.1527l.6494-.3392c2.239-1.1406 4.5552-2.3198 6.2744-4.244 1.455-1.6282 2.2316-3.5955 2.1849-5.5374-.066-2.761-1.7567-5.0732-4.4126-6.0318a8.3052 8.3052 0 00-3.0475-.5696c-3.9528.0154-7.7816 2.751-9.0709 6.4793a7.9 7.9 0 00-.34 4.082 4.523 4.523 0 001.608 2.8962c1.0345.8653 2.4447 1.0564 3.5933.4878.9413-.4648 1.6197-1.4163 2.0093-2.8247a5.8313 5.8313 0 00-.8168-4.8987 3.8414 3.8414 0 00-2.7831-1.6428 2.5312 2.5312 0 00-2.0843.6504 1.2848 1.2848 0 00-.1478 1.6685l.0087.0117c.2005.2616.5675.3834.781.1586a.9588.9588 0 01.6454-.2985 1.5285 1.5285 0 011.2518.7355 3.6155 3.6155 0 01.4817 3.1055c-.2649 1.0135-.7113 1.7153-1.2869 2.0278-.6003.326-1.232.12-1.7372-.2843a2.7154 2.7154 0 01-.9623-1.7412 5.6878 5.6878 0 01.2468-2.978c1.0382-2.991 4.1257-5.173 7.2783-5.1854a6.2133 6.2133 0 012.3022.4292c2.0534.746 3.3437 2.4457 3.3941 4.467.0362 1.5387-.5865 3.117-1.7515 4.4213-1.5168 1.6992-3.6928 2.809-5.8088 3.8864l-.568.29c-1.2226.625-1.6268 1.594-1.4442 2.4462.2137.9976 1.0718 1.7638 2.289 2.0464a5.3713 5.3713 0 001.1992.1346 11.6846 11.6846 0 006.6966-2.041c.1747-.117.3496-.2374.5369-.3673A11.3794 11.3794 0 0024 12.2805C23.9966 7.5957 21.8537 1.4163 21.8537 1.4163z"/></svg>